<svg width="21" height="20" viewBox="0 0 21 20" fill="none" xmlns="http://www.w3.org/2000/svg">
<path d="M15.0647 7.50922C15.0709 7.50919 15.0771 7.50917 15.0834 7.50917C17.1544 7.50917 18.8334 9.19118 18.8334 11.2661C18.8334 13.1998 17.375 14.7924 15.5 15M15.0647 7.50922C15.077 7.37172 15.0834 7.23247 15.0834 7.09174C15.0834 4.55579 13.0313 2.5 10.5 2.5C8.10272 2.5 6.13529 4.34389 5.93371 6.69326M15.0647 7.50922C14.9795 8.45632 14.6072 9.3205 14.0357 10.0138M5.93371 6.69326C3.82 6.89477 2.16669 8.67827 2.16669 10.8486C2.16669 12.8681 3.59815 14.5527 5.50002 14.9394M5.93371 6.69326C6.06524 6.68072 6.19855 6.67431 6.33335 6.67431C7.27154 6.67431 8.13731 6.98495 8.83376 7.50917" stroke="white" stroke-width="1.5" stroke-linecap="round" stroke-linejoin="round"/>
<path d="M10.5 17.5L10.5 10.8333M10.5 17.5C9.9165 17.5 8.82629 15.8381 8.41669 15.4167M10.5 17.5C11.0835 17.5 12.1737 15.8381 12.5834 15.4167" stroke="white" stroke-width="1.5" stroke-linecap="round" stroke-linejoin="round"/>
</svg>
