<svg width="40" height="41" viewBox="0 0 40 41" fill="none" xmlns="http://www.w3.org/2000/svg">
<g clip-path="url(#clip0_1_36)">
<path d="M21.997 1.877C22.3662 2.23664 22.5172 2.45284 22.5355 2.97178C22.5354 3.14783 22.5337 3.3239 22.5305 3.49992C22.5301 3.5929 22.5296 3.68588 22.5292 3.78167C22.5274 4.0778 22.5235 4.37386 22.5195 4.66997C22.5179 4.87108 22.5165 5.07219 22.5152 5.2733C22.5118 5.76557 22.5066 6.2578 22.5 6.75005C22.5857 6.74976 22.6714 6.74947 22.7598 6.74917C24.8449 6.74224 26.9301 6.7371 29.0152 6.73385C30.0236 6.73224 31.032 6.73004 32.0403 6.72647C32.9191 6.72336 33.7979 6.72134 34.6767 6.72064C35.1421 6.72024 35.6075 6.71928 36.0729 6.717C36.5109 6.71489 36.9488 6.71423 37.3868 6.7147C37.5476 6.71461 37.7084 6.71399 37.8692 6.71279C38.0887 6.71124 38.3081 6.71161 38.5276 6.71247C38.5913 6.71156 38.655 6.71065 38.7206 6.70971C39.1303 6.71402 39.3676 6.78446 39.6875 7.06255C40.1079 7.4967 40.0436 8.00082 40.0397 8.5692C40.04 8.67626 40.0405 8.78331 40.0411 8.89037C40.0424 9.18415 40.0418 9.47789 40.0408 9.77166C40.0401 10.0886 40.0412 10.4056 40.0421 10.7226C40.0435 11.3434 40.0432 11.9642 40.0423 12.585C40.0415 13.0895 40.0415 13.594 40.0418 14.0985C40.0418 14.1703 40.0419 14.2421 40.0419 14.316C40.042 14.4619 40.0421 14.6077 40.0422 14.7535C40.0431 16.1212 40.0421 17.4888 40.0404 18.8565C40.039 20.0302 40.0393 21.2038 40.0407 22.3775C40.0424 23.7402 40.043 25.103 40.0421 26.4657C40.042 26.611 40.0419 26.7563 40.0418 26.9016C40.0417 26.9731 40.0417 27.0446 40.0416 27.1182C40.0414 27.6222 40.0418 28.1261 40.0426 28.63C40.0434 29.2441 40.0432 29.8582 40.0415 30.4723C40.0407 30.7856 40.0404 31.099 40.0414 31.4123C40.0424 31.6991 40.0419 31.9859 40.0402 32.2728C40.0397 32.4257 40.0407 32.5787 40.0418 32.7316C40.0342 33.5795 40.0342 33.5795 39.6875 33.9375C39.3059 34.2693 39.01 34.2945 38.5276 34.2876C38.459 34.2879 38.3903 34.2882 38.3195 34.2884C38.0899 34.2889 37.8604 34.2872 37.6308 34.2855C37.466 34.2854 37.3012 34.2855 37.1364 34.2857C36.6893 34.2858 36.2423 34.2839 35.7952 34.2817C35.3279 34.2798 34.8605 34.2796 34.3932 34.2792C33.5084 34.2783 32.6236 34.2757 31.7387 34.2726C30.7313 34.2691 29.7239 34.2673 28.7165 34.2658C26.6443 34.2625 24.5722 34.257 22.5 34.25C22.5007 34.3019 22.5014 34.3537 22.5021 34.4071C22.509 34.9469 22.5137 35.4868 22.5171 36.0267C22.5187 36.2282 22.5208 36.4296 22.5236 36.631C22.5273 36.9207 22.5291 37.2104 22.5305 37.5002C22.5321 37.59 22.5337 37.6799 22.5354 37.7725C22.5355 38.2649 22.5215 38.565 22.1875 38.9375C21.9103 39.2076 21.688 39.271 21.3127 39.2788C20.462 39.2666 19.6294 39.075 18.7964 38.9167C18.604 38.8808 18.4115 38.845 18.219 38.8093C17.7526 38.7225 17.2863 38.6349 16.8201 38.5468C16.2765 38.4442 15.7327 38.3425 15.1889 38.2408C14.2186 38.0594 13.2485 37.877 12.2785 37.6941C11.3382 37.5169 10.3978 37.3404 9.45722 37.1646C8.4312 36.973 7.40525 36.7809 6.37944 36.5881C6.27003 36.5675 6.16061 36.547 6.0512 36.5264C5.99737 36.5163 5.94354 36.5062 5.88809 36.4957C5.50946 36.4246 5.13078 36.3537 4.75208 36.283C4.24242 36.1877 3.7329 36.0918 3.22347 35.9954C3.03653 35.9601 2.84955 35.925 2.66253 35.8902C2.40727 35.8427 2.15217 35.7943 1.8971 35.7458C1.78608 35.7253 1.78608 35.7253 1.67282 35.7045C1.05393 35.5852 0.58569 35.444 0.156225 34.9532C-0.0262574 34.6795 -0.0197696 34.571 -0.0203433 34.2474C-0.0208953 34.1482 -0.0214459 34.049 -0.0220146 33.9468C-0.0218387 33.8361 -0.0216471 33.7254 -0.0214424 33.6147C-0.02179 33.4976 -0.0222052 33.3805 -0.0226822 33.2634C-0.023793 32.9407 -0.0239205 32.6181 -0.0238862 32.2954C-0.0240147 31.9478 -0.0250343 31.6001 -0.0259318 31.2524C-0.027719 30.4919 -0.0283361 29.7313 -0.0287308 28.9707C-0.0289851 28.4959 -0.0294966 28.0212 -0.0300612 27.5464C-0.0315901 26.2325 -0.0328693 24.9185 -0.0330963 23.6045C-0.0331109 23.5204 -0.0331265 23.4363 -0.0331416 23.3496C-0.0331702 23.179 -0.0331992 23.0085 -0.0332274 22.8379C-0.0332417 22.7532 -0.0332556 22.6686 -0.0332703 22.5813C-0.0332844 22.4966 -0.0332987 22.4118 -0.0333132 22.3245C-0.03359 20.9507 -0.0357021 19.577 -0.0386228 18.2032C-0.0415963 16.7934 -0.0431101 15.3836 -0.0431337 13.9738C-0.0431794 13.182 -0.0438453 12.3903 -0.046102 11.5985C-0.0480148 10.9243 -0.0485879 10.2501 -0.0474109 9.57584C-0.0468499 9.23178 -0.0469227 8.88775 -0.0486936 8.54369C-0.0502995 8.2287 -0.0500997 7.91376 -0.0484671 7.59876C-0.0481936 7.48483 -0.0485809 7.3709 -0.049695 7.25698C-0.0584426 6.30082 -0.0584426 6.30082 0.173875 5.95102C0.493479 5.6316 0.750917 5.48554 1.19306 5.40291C1.27526 5.38715 1.35746 5.3714 1.44215 5.35516C1.53227 5.3387 1.62239 5.32224 1.71523 5.30529C1.8601 5.27786 1.8601 5.27786 2.0079 5.24987C2.27737 5.19886 2.54701 5.14881 2.81669 5.09891C3.10979 5.04449 3.40272 4.98918 3.69566 4.93396C4.14582 4.84918 4.59603 4.76472 5.04631 4.68058C5.99247 4.50376 6.9382 4.32471 7.88385 4.14518C9.31945 3.87271 10.7553 3.60162 12.1914 3.33156C13.0198 3.17573 13.8483 3.01954 14.6765 2.86251C15.4153 2.72244 16.1542 2.58301 16.8932 2.44438C17.2797 2.37185 17.6662 2.29902 18.0525 2.2254C18.4118 2.15693 18.7713 2.08934 19.1309 2.02241C19.2617 1.99791 19.3925 1.9731 19.5231 1.94795C21.373 1.59233 21.373 1.59233 21.997 1.877ZM22.5 9.25005C22.5 10.075 22.5 10.9 22.5 11.75C22.9486 11.7531 22.9486 11.7531 23.4063 11.7562C23.6965 11.7592 23.9866 11.7627 24.2767 11.7663C24.4781 11.7685 24.6795 11.7701 24.8809 11.7712C25.1707 11.7729 25.4604 11.7765 25.7501 11.7806C25.84 11.7807 25.9298 11.7808 26.0224 11.7809C26.5105 11.7898 26.8188 11.8082 27.1875 12.1407C27.5044 12.5487 27.4823 12.973 27.4219 13.4688C27.2509 13.8298 27.0701 13.9931 26.7187 14.1719C26.5116 14.2031 26.5116 14.2031 26.2871 14.2057C26.2027 14.2072 26.1182 14.2088 26.0313 14.2104C25.941 14.2109 25.8507 14.2114 25.7577 14.2119C25.6181 14.214 25.6181 14.214 25.4756 14.2161C25.1787 14.2204 24.8819 14.223 24.5849 14.2256C24.3835 14.2282 24.182 14.2309 23.9805 14.2337C23.487 14.2406 22.9935 14.2452 22.5 14.25C22.5 15.075 22.5 15.9 22.5 16.75C22.7991 16.7521 23.0982 16.7541 23.4063 16.7562C23.6965 16.7592 23.9866 16.7627 24.2767 16.7663C24.4781 16.7685 24.6795 16.7701 24.8809 16.7712C25.1707 16.7729 25.4604 16.7765 25.7501 16.7806C25.84 16.7807 25.9298 16.7808 26.0224 16.7809C26.5105 16.7898 26.8188 16.8082 27.1875 17.1407C27.5044 17.5487 27.4823 17.973 27.4219 18.4688C27.2509 18.8298 27.0701 18.9931 26.7187 19.1719C26.5116 19.2031 26.5116 19.2031 26.2871 19.2057C26.2027 19.2072 26.1182 19.2088 26.0313 19.2104C25.941 19.2109 25.8507 19.2114 25.7577 19.2119C25.6181 19.214 25.6181 19.214 25.4756 19.2162C25.1787 19.2204 24.8819 19.223 24.5849 19.2256C24.3835 19.2282 24.182 19.2309 23.9805 19.2337C23.487 19.2406 22.9935 19.2452 22.5 19.25C22.5 20.075 22.5 20.9 22.5 21.75C22.7991 21.7521 23.0982 21.7541 23.4063 21.7561C23.6965 21.7592 23.9866 21.7627 24.2767 21.7663C24.4781 21.7685 24.6795 21.7701 24.8809 21.7712C25.1707 21.7729 25.4604 21.7765 25.7501 21.7806C25.84 21.7807 25.9298 21.7808 26.0224 21.7809C26.5105 21.7898 26.8188 21.8082 27.1875 22.1407C27.5044 22.5487 27.4823 22.973 27.4219 23.4688C27.2509 23.8298 27.0701 23.9931 26.7187 24.1719C26.5116 24.2031 26.5116 24.2031 26.2871 24.2057C26.2027 24.2072 26.1182 24.2088 26.0313 24.2104C25.941 24.2109 25.8507 24.2114 25.7577 24.2119C25.6646 24.2133 25.5716 24.2147 25.4756 24.2161C25.1787 24.2204 24.8819 24.223 24.5849 24.2256C24.3835 24.2282 24.182 24.2309 23.9805 24.2337C23.487 24.2405 22.9935 24.2452 22.5 24.25C22.5 25.075 22.5 25.9 22.5 26.75C22.7991 26.7521 23.0982 26.7541 23.4063 26.7562C23.6965 26.7592 23.9866 26.7627 24.2767 26.7663C24.4781 26.7685 24.6795 26.7701 24.8809 26.7712C25.1707 26.7729 25.4604 26.7765 25.7501 26.7806C25.84 26.7807 25.9298 26.7808 26.0224 26.7809C26.5105 26.7898 26.8188 26.8082 27.1875 27.1407C27.5044 27.5487 27.4823 27.973 27.4219 28.4688C27.2509 28.8298 27.0701 28.9931 26.7187 29.1719C26.5116 29.2031 26.5116 29.2031 26.2871 29.2057C26.2027 29.2072 26.1182 29.2088 26.0313 29.2104C25.941 29.2109 25.8507 29.2114 25.7577 29.2119C25.6646 29.2133 25.5716 29.2147 25.4756 29.2161C25.1787 29.2204 24.8819 29.223 24.5849 29.2256C24.3835 29.2282 24.182 29.2309 23.9805 29.2337C23.487 29.2406 22.9935 29.2452 22.5 29.25C22.5 30.075 22.5 30.9 22.5 31.75C27.45 31.75 32.4 31.75 37.5 31.75C37.5 24.325 37.5 16.9 37.5 9.25005C32.55 9.25005 27.6 9.25005 22.5 9.25005ZM15.0293 13.8008C14.98 13.8612 14.98 13.8612 14.9297 13.9228C14.6198 14.3065 14.3257 14.7022 14.0318 15.0983C13.7224 15.5144 13.4019 15.9202 13.0763 16.3238C12.7517 16.7266 12.4355 17.1353 12.1216 17.5466C12.0088 17.6932 11.8932 17.8377 11.7749 17.9799C11.6248 18.1401 11.6248 18.1401 11.6406 18.3125C11.589 18.3125 11.5375 18.3125 11.4843 18.3125C11.4579 18.2486 11.4579 18.2486 11.4309 18.1835C11.2975 17.9455 11.1195 17.7615 10.9326 17.5655C10.6507 17.2644 10.38 16.9599 10.122 16.6377C9.81816 16.2602 9.49628 15.9042 9.16532 15.5506C8.94394 15.314 8.72929 15.0741 8.52048 14.8262C8.27562 14.5486 8.09173 14.3549 7.70932 14.3041C7.26158 14.282 6.98418 14.3298 6.6406 14.6407C6.33361 14.98 6.29223 15.2508 6.2866 15.6905C6.38391 16.1599 6.77225 16.528 7.08005 16.8819C7.12117 16.9295 7.16229 16.9772 7.20466 17.0263C7.52174 17.3923 7.84752 17.7495 8.17502 18.1062C8.4191 18.3794 8.64737 18.6639 8.87601 18.9501C9.01366 19.1138 9.15165 19.2674 9.30021 19.4206C9.34019 19.4622 9.38018 19.5038 9.42138 19.5467C9.49956 19.6273 9.57871 19.7069 9.65892 19.7855C9.82068 19.9527 9.91838 20.06 9.93497 20.2965C9.80063 20.5962 9.60234 20.8232 9.38962 21.0713C9.29624 21.1831 9.20307 21.295 9.11008 21.407C9.0628 21.464 9.01552 21.5209 8.9668 21.5796C8.75456 21.8404 8.5542 22.1095 8.35447 22.3799C8.04412 22.7992 7.72562 23.2099 7.39744 23.6153C6.58524 24.5455 6.58524 24.5455 6.30643 25.6923C6.34948 26.0864 6.56287 26.2891 6.84568 26.545C7.19439 26.7129 7.51015 26.7508 7.8906 26.6719C8.24212 26.4748 8.47828 26.2464 8.73044 25.9346C8.7638 25.8936 8.79716 25.8526 8.83153 25.8103C9.12926 25.4419 9.41806 25.0665 9.70517 24.6898C9.9609 24.3545 10.2196 24.0214 10.4785 23.6885C10.5486 23.5984 10.5486 23.5984 10.6201 23.5065C10.9566 23.0743 11.2961 22.6447 11.6406 22.2188C12.0531 22.5435 12.3672 22.898 12.6938 23.308C12.9066 23.5664 13.1303 23.8107 13.3593 24.0547C13.6429 24.3574 13.9154 24.6633 14.1748 24.9874C14.4593 25.3406 14.7568 25.6788 15.0635 26.0127C15.1065 26.0603 15.1496 26.1078 15.194 26.1568C15.4555 26.4386 15.6507 26.6423 16.0443 26.6982C16.4926 26.7052 16.7629 26.6729 17.1094 26.3594C17.4163 26.0201 17.4577 25.7493 17.4634 25.3096C17.366 24.8402 16.9777 24.472 16.6699 24.1182C16.6288 24.0705 16.5877 24.0229 16.5453 23.9738C16.2281 23.6076 15.9022 23.2503 15.5746 22.8935C15.3925 22.6897 15.22 22.4807 15.0488 22.2676C14.7417 21.8869 14.4161 21.528 14.0826 21.1707C13.8072 20.8755 13.5404 20.5753 13.2812 20.2657C13.3955 19.9223 13.5827 19.6686 13.8086 19.3916C13.8866 19.2941 13.9647 19.1966 14.0426 19.099C14.084 19.0474 14.1254 18.9959 14.168 18.9428C14.3911 18.6632 14.6099 18.3803 14.8291 18.0977C14.9219 17.9782 15.0148 17.8586 15.1077 17.7391C15.1542 17.6792 15.2008 17.6193 15.2487 17.5576C15.4381 17.3139 15.6278 17.0704 15.8174 16.8269C15.9978 16.595 16.1781 16.363 16.3583 16.1309C16.479 15.9756 16.6001 15.8207 16.7212 15.6658C16.792 15.5747 16.8628 15.4837 16.9336 15.3926C16.9944 15.3147 17.0552 15.2367 17.1179 15.1564C17.4312 14.7253 17.4888 14.3887 17.4219 13.8594C17.2398 13.4814 17.0186 13.2602 16.6406 13.0782C15.9016 12.9602 15.4937 13.2295 15.0293 13.8008Z" fill="#1F3B2C"/>
<path d="M31.5625 26.7085C31.637 26.7082 31.7115 26.7079 31.7883 26.7076C31.9454 26.7073 32.1025 26.7079 32.2595 26.7092C32.4992 26.7109 32.7388 26.7092 32.9785 26.7072C33.1315 26.7074 33.2845 26.7078 33.4375 26.7085C33.5445 26.7075 33.5445 26.7075 33.6536 26.7065C34.0896 26.7129 34.3418 26.7716 34.6875 27.0625C34.971 27.3608 35.0242 27.6002 35.0391 28C35.0242 28.3997 34.971 28.6391 34.6875 28.9375C34.2762 29.2835 33.9513 29.296 33.4375 29.2915C33.3257 29.2919 33.3257 29.2919 33.2117 29.2924C33.0546 29.2926 32.8975 29.292 32.7405 29.2907C32.5008 29.289 32.2612 29.2907 32.0215 29.2927C31.8685 29.2925 31.7155 29.2921 31.5625 29.2915C31.4555 29.2924 31.4555 29.2924 31.3464 29.2934C30.9104 29.287 30.6582 29.2283 30.3125 28.9375C30.029 28.6391 29.9758 28.3997 29.9609 28C29.9758 27.6002 30.029 27.3608 30.3125 27.0625C30.7238 26.7164 31.0487 26.7039 31.5625 26.7085Z" fill="#E5B0A4"/>
<path d="M31.5625 21.7085C31.637 21.7082 31.7115 21.7079 31.7883 21.7076C31.9454 21.7073 32.1025 21.7079 32.2595 21.7092C32.4992 21.7109 32.7388 21.7092 32.9785 21.7072C33.1315 21.7074 33.2845 21.7078 33.4375 21.7085C33.5445 21.7075 33.5445 21.7075 33.6536 21.7065C34.0896 21.7129 34.3418 21.7716 34.6875 22.0625C34.971 22.3608 35.0242 22.6002 35.0391 23C35.0242 23.3997 34.971 23.6391 34.6875 23.9375C34.2762 24.2835 33.9513 24.296 33.4375 24.2915C33.3257 24.2919 33.3257 24.2919 33.2117 24.2924C33.0546 24.2926 32.8975 24.292 32.7405 24.2907C32.5008 24.289 32.2612 24.2907 32.0215 24.2927C31.8685 24.2925 31.7155 24.2921 31.5625 24.2915C31.4555 24.2924 31.4555 24.2924 31.3464 24.2934C30.9104 24.287 30.6582 24.2283 30.3125 23.9375C30.029 23.6391 29.9758 23.3997 29.9609 23C29.9758 22.6002 30.029 22.3608 30.3125 22.0625C30.7238 21.7164 31.0487 21.7039 31.5625 21.7085Z" fill="#E5B0A4"/>
<path d="M31.5625 16.7085C31.637 16.7082 31.7115 16.7079 31.7883 16.7076C31.9454 16.7073 32.1025 16.7079 32.2595 16.7092C32.4992 16.7109 32.7388 16.7092 32.9785 16.7072C33.1315 16.7074 33.2845 16.7078 33.4375 16.7085C33.5445 16.7075 33.5445 16.7075 33.6536 16.7065C34.0896 16.7129 34.3418 16.7716 34.6875 17.0625C34.971 17.3608 35.0242 17.6002 35.0391 18C35.0242 18.3997 34.971 18.6391 34.6875 18.9375C34.2762 19.2835 33.9513 19.296 33.4375 19.2915C33.3257 19.2919 33.3257 19.2919 33.2117 19.2924C33.0546 19.2926 32.8975 19.292 32.7405 19.2907C32.5008 19.289 32.2612 19.2907 32.0215 19.2927C31.8685 19.2925 31.7155 19.2921 31.5625 19.2915C31.4555 19.2924 31.4555 19.2924 31.3464 19.2934C30.9104 19.287 30.6582 19.2283 30.3125 18.9375C30.029 18.6391 29.9758 18.3997 29.9609 18C29.9758 17.6002 30.029 17.3608 30.3125 17.0625C30.7238 16.7164 31.0487 16.7039 31.5625 16.7085Z" fill="#E5B0A4"/>
<path d="M31.5625 11.7085C31.637 11.7082 31.7115 11.7079 31.7883 11.7076C31.9454 11.7073 32.1025 11.7079 32.2595 11.7092C32.4992 11.7109 32.7388 11.7092 32.9785 11.7072C33.1315 11.7074 33.2845 11.7078 33.4375 11.7085C33.5445 11.7075 33.5445 11.7075 33.6536 11.7065C34.0896 11.7129 34.3418 11.7716 34.6875 12.0625C34.971 12.3608 35.0242 12.6002 35.0391 13C35.0242 13.3997 34.971 13.6391 34.6875 13.9375C34.2762 14.2835 33.9513 14.296 33.4375 14.2915C33.3257 14.2919 33.3257 14.2919 33.2117 14.2924C33.0546 14.2926 32.8975 14.292 32.7405 14.2907C32.5008 14.289 32.2612 14.2907 32.0215 14.2927C31.8685 14.2925 31.7155 14.2921 31.5625 14.2915C31.4555 14.2924 31.4555 14.2924 31.3464 14.2934C30.9104 14.287 30.6582 14.2283 30.3125 13.9375C30.029 13.6391 29.9758 13.3997 29.9609 13C29.9758 12.6002 30.029 12.3608 30.3125 12.0625C30.7238 11.7164 31.0487 11.7039 31.5625 11.7085Z" fill="#E5B0A4"/>
</g>
<defs>
<clipPath id="clip0_1_36">
<rect width="40" height="40" fill="white" transform="translate(0 0.5)"/>
</clipPath>
</defs>
</svg>
